<svg xmlns="http://www.w3.org/2000/svg" aria-hidden="true" style="width: 0; height: 0; position: absolute;"><symbol id="icon-btn-arrow-back" viewBox="0 0 9 14">
    <path d="M8 1L2 7L8 13" stroke="currentColor" strokewidth="2"></path>
</symbol><symbol id="icon-empty-list" viewBox="0 0 97 96">
<g opacity="0.5">
<path d="M48.5 0.5L53.7487 38.9089L89.6362 24.25L58.9975 48L89.6362 71.75L53.7487 57.0911L48.5 95.5L43.2513 57.0911L7.36379 71.75L38.0025 48L7.36379 24.25L43.2513 38.9089L48.5 0.5Z" fill="#B8BDC2"></path>
</g>
</symbol><symbol id="icon-friska" viewBox="0 0 19 22">
<path d="M9.5 0.5L10.6602 8.99039L18.5933 5.75L11.8205 11L18.5933 16.25L10.6602 13.0096L9.5 21.5L8.33975 13.0096L0.406734 16.25L7.1795 11L0.406734 5.75L8.33975 8.99039L9.5 0.5Z" fill="currentColor"></path>
</symbol><symbol id="icon-lists" viewBox="0 0 15 8">
<rect y="0.5" width="15" height="2" rx="1" fill="currentColor"></rect>
<rect y="5.5" width="15" height="2" rx="1" fill="currentColor"></rect>
</symbol><symbol id="icon-new-card-list" viewBox="0 0 39 39">
<path d="M19.5 0.5V38.5M0.5 19.5H38.5" stroke="currentColor" stroke-width="1.5"></path>
</symbol><symbol id="icon-new" viewBox="0 0 14 14">
<path d="M7 1V13M1 7H13" stroke="currentColor" stroke-width="2" stroke-linecap="round"></path>
</symbol><symbol id="icon-settings" viewBox="0 0 15 16">
<path fill-rule="evenodd" clip-rule="evenodd" d="M12.9617 3.07927C12.8602 2.83424 12.6655 2.63956 12.4205 2.53807L7.88257 0.658396C7.63754 0.556902 7.36223 0.556902 7.1172 0.658396L2.57927 2.53807C2.33424 2.63956 2.13956 2.83424 2.03807 3.07927L0.158396 7.6172C0.0569019 7.86223 0.0569019 8.13754 0.158396 8.38257L2.03807 12.9205C2.13956 13.1655 2.33424 13.3602 2.57927 13.4617L7.1172 15.3414C7.36223 15.4429 7.63754 15.4429 7.88257 15.3414L12.4205 13.4617C12.6655 13.3602 12.8602 13.1655 12.9617 12.9205L14.8414 8.38257C14.9429 8.13754 14.9429 7.86223 14.8414 7.6172L12.9617 3.07927ZM7.49981 4.90386C5.78995 4.90386 4.40383 6.28998 4.40383 7.99984C4.40383 9.70971 5.78995 11.0958 7.49981 11.0958C9.20968 11.0958 10.5958 9.70971 10.5958 7.99984C10.5958 6.28998 9.20968 4.90386 7.49981 4.90386Z" fill="currentColor"></path>
</symbol></svg>