<svg width="15" height="16" viewBox="0 0 15 16" fill="none" xmlns="http://www.w3.org/2000/svg">
<path fill-rule="evenodd" clip-rule="evenodd" d="M12.9617 3.07927C12.8602 2.83424 12.6655 2.63956 12.4205 2.53807L7.88257 0.658396C7.63754 0.556902 7.36223 0.556902 7.1172 0.658396L2.57927 2.53807C2.33424 2.63956 2.13956 2.83424 2.03807 3.07927L0.158396 7.6172C0.0569019 7.86223 0.0569019 8.13754 0.158396 8.38257L2.03807 12.9205C2.13956 13.1655 2.33424 13.3602 2.57927 13.4617L7.1172 15.3414C7.36223 15.4429 7.63754 15.4429 7.88257 15.3414L12.4205 13.4617C12.6655 13.3602 12.8602 13.1655 12.9617 12.9205L14.8414 8.38257C14.9429 8.13754 14.9429 7.86223 14.8414 7.6172L12.9617 3.07927ZM7.49981 4.90386C5.78995 4.90386 4.40383 6.28998 4.40383 7.99984C4.40383 9.70971 5.78995 11.0958 7.49981 11.0958C9.20968 11.0958 10.5958 9.70971 10.5958 7.99984C10.5958 6.28998 9.20968 4.90386 7.49981 4.90386Z" fill="#050401"/>
</svg>
